<?xml version="1.0" standalone="no"?>
<!DOCTYPE svg PUBLIC "-//W3C//DTD SVG 20010904//EN"
 "http://www.w3.org/TR/2001/REC-SVG-20010904/DTD/svg10.dtd">
<svg version="1.0" xmlns="http://www.w3.org/2000/svg"
 width="512.000000pt" height="512.000000pt" viewBox="0 0 512.000000 512.000000"
 preserveAspectRatio="xMidYMid meet">
<metadata>
Created by potrace 1.15, written by Peter Selinger 2001-2017
</metadata>
<g transform="translate(0.000000,512.000000) scale(0.100000,-0.100000)"
fill="#000000" stroke="none">
<path d="M4490 3300 c-67 -11 -113 -34 -160 -77 -43 -38 -70 -85 -70 -123 0
-18 6 -20 79 -20 l79 0 7 30 c8 35 43 66 95 81 54 16 104 4 135 -33 52 -62 16
-111 -98 -130 l-68 -11 3 -41 3 -41 56 -6 c118 -13 172 -65 135 -133 -9 -18
-30 -40 -46 -49 -36 -22 -121 -22 -167 0 -37 17 -73 65 -73 96 0 15 -10 17
-80 17 l-80 0 0 -30 c0 -37 29 -97 62 -127 12 -12 50 -34 83 -50 54 -25 71
-28 165 -28 80 0 118 5 160 20 72 26 134 86 150 144 23 87 -8 148 -92 179
l-51 19 43 24 c55 30 85 84 76 134 -20 104 -194 182 -346 155z"/>
<path d="M2983 3279 c-85 -42 -110 -138 -52 -204 53 -60 150 -68 225 -18 83
54 66 180 -29 223 -54 25 -92 25 -144 -1z"/>
<path d="M2500 3055 l0 -125 -87 0 -88 0 3 -65 4 -65 84 0 83 0 0 -237 c-1
-259 8 -326 56 -388 38 -50 155 -74 299 -60 l76 7 0 61 0 62 -75 0 c-107 1
-115 11 -126 151 -4 60 -5 175 -2 257 l6 147 99 0 98 0 0 65 0 65 -100 0 -100
0 0 125 0 125 -115 0 -115 0 0 -125z"/>
<path d="M654 2940 c-111 -16 -204 -60 -281 -132 -62 -60 -99 -132 -112 -220
-41 -290 212 -513 564 -495 177 9 344 82 421 184 57 75 76 144 72 254 -3 87
-7 103 -41 172 -113 228 -345 282 -570 133 -32 -21 -56 -40 -55 -42 2 -2 24 4
48 12 96 34 236 0 313 -74 58 -55 80 -105 85 -192 4 -70 2 -79 -30 -140 -61
-117 -172 -177 -312 -168 -231 15 -340 227 -232 454 45 95 116 166 222 222
l79 41 -60 -1 c-33 0 -83 -4 -111 -8z"/>
<path d="M1780 2936 c-73 -16 -144 -51 -174 -87 -14 -16 -27 -29 -30 -29 -3 0
-6 25 -6 55 l0 55 -105 0 -105 0 0 -560 0 -560 110 0 110 0 0 205 c0 113 4
205 8 205 5 0 17 -10 28 -21 56 -63 237 -115 373 -106 226 14 374 151 414 385
13 79 -3 176 -40 245 -55 101 -181 188 -311 216 -67 14 -201 13 -272 -3z m215
-147 c145 -54 222 -231 166 -380 -29 -78 -98 -142 -177 -165 -86 -25 -186 -16
-255 23 -164 92 -210 315 -93 452 42 49 59 59 139 83 70 20 142 16 220 -13z"/>
<path d="M3604 2940 c-117 -16 -241 -81 -308 -163 -64 -79 -81 -128 -81 -247
0 -99 2 -109 32 -171 88 -178 287 -278 528 -266 164 9 316 68 396 154 124 134
133 363 22 523 -102 146 -266 195 -433 131 -47 -18 -165 -100 -156 -108 1 -2
24 4 51 13 65 23 165 14 239 -21 141 -66 201 -238 133 -377 -54 -110 -166
-178 -292 -178 -207 0 -342 171 -291 370 35 134 120 238 253 308 l78 41 -55
-1 c-30 0 -82 -4 -116 -8z"/>
<path d="M2950 2525 l0 -405 110 0 110 0 0 405 0 405 -110 0 -110 0 0 -405z"/>
</g>
</svg>
